Coordinates
version=1
nRows=26
nColumns=22
inDegrees=yes

Units are S.I. units (second, meters, Newtons, ...)
If the header above contains a line with 'inDegrees', this indicates whether rotational values are in degrees (yes) or radians (no).

endheader
time	pelvis_tilt	pelvis_list	pelvis_rotation	pelvis_tx	pelvis_ty	pelvis_tz	hip_flexion_r	hip_adduction_r	hip_rotation_r	knee_angle_r	ankle_angle_r	subtalar_angle_r	hip_flexion_l	hip_adduction_l	hip_rotation_l	knee_angle_l	ankle_angle_l	subtalar_angle_l	lumbar_extension	lumbar_bending	lumbar_rotation
      5.08000000	     -1.34327299	    -10.55679644	    -79.47742774	      1.12647959	      0.91175477	      0.10719073	    -17.76966153	     11.24145301	      8.76678155	    -26.30818547	     13.67982507	     -5.68313403	     17.00123223	     -2.91105562	      2.43287636	    -19.44081898	      5.22501084	     -3.90200132	    -12.58466320	      5.91256749	     -1.78518608
      5.09000000	     -1.17857886	    -10.42168548	    -79.89480553	      1.12979539	      0.91227238	      0.11676882	    -17.58788506	     10.77119193	      8.54522804	    -27.49693057	     12.47116680	     -5.07320276	     16.93142375	     -2.61685170	      2.22724133	    -20.35999759	      4.83895504	     -4.54071029	    -12.17396825	      5.57823267	     -1.97284675
      5.10000000	     -0.96521432	    -10.30882218	    -80.29030048	      1.13303510	      0.91304415	      0.12638786	    -17.37663351	     10.23313634	      8.17924473	    -28.72225578	     11.03110109	     -4.39596561	     16.80563453	     -2.32125663	      1.87603860	    -21.25362593	      4.71955367	     -5.02951389	    -11.78469655	      5.18856545	     -2.20264468
      5.11000000	     -0.71630462	    -10.22636234	    -80.66204726	      1.13620596	      0.91405533	      0.13595222	    -17.12178398	      9.63429624	      7.64790235	    -30.00680597	      9.36148102	     -3.67218084	     16.60441873	     -2.02200077	      1.46226192	    -22.09290219	      4.81756774	     -5.36379716	    -11.43808478	      4.76327753	     -2.45065397
      5.12000000	     -0.43037992	    -10.17069527	    -81.00943594	      1.13931155	      0.91528085	      0.14542330	    -16.81786479	      8.97098405	      6.97847721	    -31.35030945	      7.45040933	     -2.83953665	     16.30766481	     -1.70364858	      1.02403977	    -22.82923657	      5.11375205	     -5.57729959	    -11.13267943	      4.30082305	     -2.72810564
      5.13000000	     -0.12029014	    -10.14591421	    -81.33614623	      1.14234830	      0.91668449	      0.15472306	    -16.45697530	      8.25314589	      6.17989154	    -32.76216369	      5.29927534	     -1.87641743	     15.91206260	     -1.36670711	      0.59573499	    -23.44594386	      5.53470657	     -5.70803515	    -10.88446864	      3.82057630	     -3.01784557
      5.14000000	      0.20415409	    -10.13767477	    -81.66287587	      1.14529328	      0.91820561	      0.16381215	    -16.01572359	      7.49158157	      5.32930907	    -34.25716955	      2.97266138	     -0.73729605	     15.42041579	     -1.01235817	      0.18098611	    -23.90716078	      6.05753711	     -5.80898209	    -10.68151450	      3.33278101	     -3.31045565
      5.15000000	      0.51486527	    -10.13880178	    -82.00880454	      1.14811265	      0.91977990	      0.17263978	    -15.47177389	      6.71598699	      4.47014623	    -35.85184636	      0.57102137	      0.61496922	     14.84697484	     -0.66359900	     -0.21778892	    -24.20339698	      6.65231625	     -5.93462585	    -10.52078848	      2.86744026	     -3.58166082
      5.16000000	      0.78995957	    -10.15000907	    -82.37217778	      1.15082637	      0.92134940	      0.18115106	    -14.82239684	      5.95654216	      3.63597740	    -37.54602657	     -1.80173804	      2.10662895	     14.22406206	     -0.33669010	     -0.60321135	    -24.37592977	      7.25665131	     -6.11980041	    -10.40918446	      2.45760823	     -3.83401730
      5.17000000	      1.01826908	    -10.16914622	    -82.76448012	      1.15341011	      0.92286513	      0.18932913	    -14.06362522	      5.23370022	      2.87105517	    -39.34214657	     -3.99539382	      3.72174544	     13.57108220	     -0.04396896	     -0.98582026	    -24.45121740	      7.87102210	     -6.38323295	    -10.34721680	      2.11347703	     -4.05969970
      5.18000000	      1.19704450	    -10.19646331	    -83.19741015	      1.15585362	      0.92429596	      0.19716580	    -13.19938047	      4.55664440	      2.20671606	    -41.23321389	     -5.87976904	      5.43990722	     12.90284154	      0.20934636	     -1.37766494	    -24.45633101	      8.49040972	     -6.72181615	    -10.33727316	      1.83791163	     -4.24403090
      5.19000000	      1.32929349	    -10.23455815	    -83.67639532	      1.15815477	      0.92563369	      0.20467353	    -12.24415905	      3.93072689	      1.66109372	    -43.19365441	     -7.34422691	      7.26029151	     12.22510695	      0.42430807	     -1.78294077	    -24.41205739	      9.11268752	     -7.12243781	    -10.38163903	      1.62681255	     -4.38399514
      5.20000000	      1.41693747	    -10.28892841	    -84.19527040	      1.16033906	      0.92689264	      0.21187993	    -11.22351294	      3.35755237	      1.21811659	    -45.17717522	     -8.31930672	      9.13831284	     11.53788068	      0.60255701	     -2.19258670	    -24.33289025	      9.73439423	     -7.55624788	    -10.48118777	      1.48010580	     -4.47474432
      5.21000000	      1.47497201	    -10.35999187	    -84.73805307	      1.16242357	      0.92808484	      0.21879953	    -10.15793414	      2.82766760	      0.85630510	    -47.13351595	     -8.78279320	     10.98006494	     10.85399723	      0.75634737	     -2.61736983	    -24.24668923	     10.32529478	     -8.00582949	    -10.63263805	      1.37932006	     -4.54731522
      5.22000000	      1.51520250	    -10.44138272	    -85.28789562	      1.16443052	      0.92921740	      0.22545656	     -9.06121765	      2.32942556	      0.54552723	    -49.01145342	     -8.72632142	     12.63815822	     10.18673273	      0.89466490	     -3.06623628	    -24.16861639	     10.85438603	     -8.45019328	    -10.82289928	      1.30827635	     -4.62007187
      5.23000000	      1.52955762	    -10.52435677	    -85.83029461	      1.16636842	      0.93030836	      0.23187588	     -7.94575976	      1.87679820	      0.26644437	    -50.75061898	     -8.24285009	     14.03245084	      9.53327812	      1.01827195	     -3.46721541	    -24.07586145	     11.35952652	     -8.86065067	    -11.03113626	      1.27146501	     -4.66947181
      5.24000000	      1.52662971	    -10.59182485	    -86.34199190	      1.16823896	      0.93134004	      0.23805528	     -6.80916934	      1.46498781	     -0.01168036	    -52.32042340	     -7.38697868	     15.04121081	      8.92371569	      1.12897562	     -3.83939120	    -23.98668813	     11.81113163	     -9.22264281	    -11.23441240	      1.25349499	     -4.73314377
      5.25000000	      1.49224939	    -10.63643117	    -86.79868806	      1.17007054	      0.93231038	      0.24399847	     -5.66371367	      1.11147729	     -0.32100383	    -53.68470151	     -6.27643147	     15.68071465	      8.36999013	      1.21429357	     -4.14418719	    -23.90654509	     12.23939334	     -9.54162541	    -11.41727470	      1.27236300	     -4.81447945
      5.26000000	      1.44468282	    -10.67928793	    -87.19091747	      1.17184400	      0.93326522	      0.24970905	     -4.55118872	      0.80163517	     -0.66283008	    -54.82939434	     -4.99994344	     15.84329196	      7.84386157	      1.28196102	     -4.41757477	    -23.82625612	     12.55952846	     -9.69501569	    -11.60355992	      1.30284686	     -4.94929079
      5.27000000	      1.38702941	    -10.63028181	    -87.47339755	      1.17366609	      0.93403710	      0.25518645	     -3.36818005	      0.50194457	     -1.12190704	    -55.78798839	     -3.73183279	     15.66147977	      7.46959894	      1.34888070	     -4.61016031	    -23.78983419	     12.91828272	    -10.03399772	    -11.67792296	      1.34748693	     -5.17318514
      5.28000000	      1.32285442	    -10.59986296	    -87.66786813	      1.17549746	      0.93482635	      0.26046025	     -2.26590407	      0.21776029	     -1.64930389	    -56.52707277	     -2.41261081	     14.92081940	      7.08947781	      1.41003879	     -4.72547220	    -23.73794327	     13.20791159	    -10.27067095	    -11.77183911	      1.40316890	     -5.43724016
      5.29000000	      1.26981820	    -10.58773795	    -87.76326352	      1.17736807	      0.93562417	      0.26556350	     -1.25072029	     -0.07391203	     -2.24928819	    -57.05980874	     -1.09063623	     13.80974093	      6.70111991	      1.48456892	     -4.77433780	    -23.66983916	     13.44291906	    -10.46288252	    -11.87684346	      1.45265601	     -5.78324212
      5.30000000	      1.20777099	    -10.61716853	    -87.77398228	      1.17926037	      0.93647616	      0.27051792	     -0.35891035	     -0.33377564	     -2.88360200	    -57.37174378	      0.21750189	     12.46733350	      6.26546687	      1.55154665	     -4.73817376	    -23.56475776	     13.66623249	    -10.64091760	    -12.02003030	      1.51969962	     -6.20081990
      5.31000000	      1.16988067	    -10.68407360	    -87.68832287	      1.18121563	      0.93734680	      0.27532841	      0.41795422	     -0.61341581	     -3.60394140	    -57.48478741	      1.46708513	     11.17971587	      5.80234749	      1.64499710	     -4.63580399	    -23.45417868	     13.83228082	    -10.80663729	    -12.19832705	      1.56855410	     -6.67409310
      5.32000000	      1.10011389	    -10.80017208	    -87.56640904	      1.18309759	      0.93826569	      0.28000710	      1.06317888	     -0.80395419	     -4.29846457	    -57.37440558	      2.67096069	      9.95832320	      5.28372509	      1.69472042	     -4.49379663	    -23.31678445	     14.02270788	    -10.96078962	    -12.42626510	      1.65212744	     -7.16176298
      5.33000000	      1.06039560	    -10.95120888	    -87.37969219	      1.18498837	      0.93918328	      0.28453741	      1.60007629	     -1.00673967	     -5.04337830	    -57.07877154	      3.77564062	      8.96892299	      4.74007817	      1.77023712	     -4.31326650	    -23.17774520	     14.15781951	    -11.09639395	    -12.69548950	      1.70548485	     -7.68515072
